# xmcd CD database file
#
# Track frame offsets:
#	150
#	24312
#	44215
#	80730
#	100980
#	122680
#	140942
#	168529
#
# Disc length: 2687 seconds
#
# Revision: 0
# Processed by: cddbd v1.5.1PL2 Copyright (c) Steve Scherf et al.
# Submitted via: CDex 1.51
#
DISCID=740a7d08
DTITLE=Mark Nolan - Music from Australia
DYEAR=2005
DGENRE=New Age
TTITLE0=Stormbird
TTITLE1=Rattle em up
TTITLE2=Tribal heart
TTITLE3=Calling home
TTITLE4=Rhythm of the land
TTITLE5=Song of my mother Earth
TTITLE6=Tribute to Paulie Wright
TTITLE7=Road train
EXTD=YEAR: 2005
EXTT0=
EXTT1=
EXTT2=
EXTT3=
EXTT4=
EXTT5=
EXTT6=
EXTT7=
PLAYORDER=
